<svg width="320" height="320" viewBox="0 0 320 320" fill="none" xmlns="http://www.w3.org/2000/svg">
<path fill-rule="evenodd" clip-rule="evenodd" d="M136.552 87.1251C143.696 85.9081 151.02 85.2623 158.459 85.2623C166.51 85.2623 174.456 86.0188 182.207 87.4369C209.264 47.8069 242.16 47.6776 254.637 57.2055C273.095 71.2996 275.257 120.576 272.576 146.773C280.598 159.806 285.163 173.821 285.163 187.664C285.163 222.325 252.289 268 158.459 268C64.6293 268 33.8093 222.325 33.8093 187.664C33.8093 173.627 38.3424 159.414 46.3417 146.226C43.7468 119.896 46.0054 71.2022 64.3355 57.2055C76.7805 47.7026 109.536 47.8063 136.552 87.1251Z" fill="#FFCE6C"/>
<path fill-rule="evenodd" clip-rule="evenodd" d="M249.05 185.987C234.052 175.143 215.397 171.274 195.742 172.945C192.22 173.245 189.122 170.632 188.823 167.111C188.524 163.589 191.136 160.491 194.658 160.191C216.603 158.326 238.51 162.572 256.55 175.613C259.414 177.684 260.057 181.685 257.986 184.55C255.916 187.414 251.915 188.057 249.05 185.987Z" fill="#373738"/>
<path fill-rule="evenodd" clip-rule="evenodd" d="M74.1497 185.987C89.1484 175.143 107.803 171.274 127.458 172.945C130.98 173.245 134.078 170.632 134.377 167.111C134.676 163.589 132.064 160.491 128.542 160.191C106.597 158.326 84.6901 162.572 66.6504 175.613C63.7859 177.684 63.1426 181.685 65.2135 184.55C67.2843 187.414 71.2852 188.057 74.1497 185.987Z" fill="#373738"/>
</svg>
