<svg width="320" height="320" viewBox="0 0 320 320" fill="none" xmlns="http://www.w3.org/2000/svg">
<path fill-rule="evenodd" clip-rule="evenodd" d="M136.552 87.1251C143.696 85.9081 151.02 85.2623 158.459 85.2623C166.51 85.2623 174.456 86.0188 182.207 87.4369C209.264 47.8069 242.16 47.6776 254.637 57.2055C273.095 71.2996 275.257 120.576 272.576 146.773C280.598 159.806 285.163 173.821 285.163 187.664C285.163 222.325 252.289 268 158.459 268C64.6293 268 33.8093 222.325 33.8093 187.664C33.8093 173.627 38.3424 159.414 46.3417 146.226C43.7468 119.896 46.0054 71.2022 64.3355 57.2055C76.7805 47.7026 109.536 47.8063 136.552 87.1251Z" fill="#51CB89"/>
<path fill-rule="evenodd" clip-rule="evenodd" d="M67.4266 161.609C67.4266 165.144 70.292 168.009 73.8266 168.009C79.3056 168.009 88.2927 169.471 97.5523 172.141C101.657 173.324 105.633 174.693 109.239 176.185C95.9528 181.504 79.2248 188.727 70.8947 193.02C67.7527 194.639 66.5183 198.499 68.1376 201.64C69.7568 204.782 73.6165 206.017 76.7584 204.398C87.6627 198.778 114.751 187.433 126.64 183.233C128.868 182.447 130.481 180.497 130.836 178.162C131.191 175.826 130.231 173.485 128.339 172.071C121.325 166.833 110.932 162.677 101.098 159.842C91.2144 156.992 80.953 155.209 73.8266 155.209C70.292 155.209 67.4266 158.075 67.4266 161.609Z" fill="#191919"/>
<path fill-rule="evenodd" clip-rule="evenodd" d="M252.573 161.609C252.573 165.144 249.708 168.009 246.173 168.009C240.706 168.009 231.661 169.505 222.357 172.198C218.37 173.352 214.515 174.674 211.014 176.104C224.162 181.129 240.783 187.978 249.481 193.23C252.507 195.057 253.479 198.99 251.652 202.016C249.826 205.042 245.892 206.014 242.866 204.188C232.007 197.632 205.586 187.552 193.36 183.233C191.134 182.447 189.522 180.501 189.165 178.168C188.808 175.835 189.763 173.495 191.651 172.079C198.546 166.909 208.951 162.752 218.799 159.902C228.702 157.036 239.035 155.209 246.173 155.209C249.708 155.209 252.573 158.075 252.573 161.609Z" fill="#191919"/>
</svg>
