<svg width="299" height="311" viewBox="0 0 299 311" fill="none" xmlns="http://www.w3.org/2000/svg">
<path d="M63.0581 146.66C72.635 137.113 93.9363 147.606 98.2425 153.667L189.279 170.135C200.192 178.35 209.801 205.003 211.564 217.769C218.802 204.725 221.996 196.313 223.324 175.134C223.793 167.65 220.473 135.897 241.631 135.064C258.558 134.398 262.604 157.545 262.511 169.201C262.511 232.756 207.945 269.113 201.82 271.611C195.695 274.108 185.116 279.381 140.851 279.937C96.585 280.492 81.2732 264.117 75.9835 251.628C71.7517 241.637 79.1761 216.751 82.7026 205.927C58.7602 183.169 51.087 158.594 63.0581 146.66Z" fill="#373738"/>
<path fill-rule="evenodd" clip-rule="evenodd" d="M102.623 103.319C102.589 88.1079 112.539 69.2027 122.716 66.4155C130.068 64.402 145.246 70.3623 150.548 93.1308C152.989 93.5645 155.462 94.1126 157.959 94.7772C161.94 95.8368 165.74 97.2685 169.319 99.013C186.914 83.176 202.458 87.1371 207.067 93.0748C213.596 101.486 209.938 123.68 200.4 135.819C200.993 138.342 201.357 140.891 201.475 143.442L211.752 144.2C214.034 144.369 215.752 146.354 215.589 148.635C215.427 150.916 213.445 152.628 211.163 152.459L200.971 151.707C200.778 152.828 200.533 153.943 200.234 155.052C200.01 155.882 199.744 156.716 199.433 157.549L206.753 160.665C208.856 161.56 209.832 163.992 208.933 166.097C208.034 168.202 205.6 169.182 203.497 168.287L195.461 164.866C186.935 176.444 168.276 185.003 135.943 176.397C100.464 166.954 89.4208 150.325 89.3616 133.651L83.7547 133.045C81.4799 132.799 79.8444 130.757 80.1017 128.485C80.3591 126.213 82.4117 124.571 84.6865 124.817L90.1722 125.411C90.6127 123.149 91.2124 120.992 91.9606 118.943L86.3057 116.304C84.2346 115.338 83.355 112.88 84.341 110.814C85.327 108.748 87.8053 107.856 89.8764 108.823L95.6133 111.5C97.5597 108.428 99.9151 105.697 102.623 103.319Z" fill="#373738"/>
<path d="M153.865 141.133C153.865 149.094 162.207 155.548 170.409 155.548C178.612 155.548 185.307 150.987 185.307 141.133C185.307 133.171 177.632 126.461 169.687 126.461C159.492 126.461 153.865 132.323 153.865 141.133Z" fill="white"/>
<path d="M157.334 138.927C157.334 145.047 162.213 149.909 168.233 149.909C174.252 149.909 179.131 145.343 179.131 139.712C179.131 134.08 174.252 128.73 168.233 128.73C162.005 128.73 157.334 133.295 157.334 138.927Z" fill="#212121"/>
<path d="M102.822 126.285C102.822 134.075 108.81 139.039 116.95 139.845C125.089 140.652 133.069 134.894 133.069 126.285C133.069 118.513 125.689 111.291 117.915 111.291C107.776 111.291 102.822 118.494 102.822 126.285Z" fill="white"/>
<path d="M106.304 123.705C106.304 129.826 111.183 134.687 117.203 134.687C123.222 134.687 128.101 130.122 128.101 124.49C128.101 118.858 123.222 113.508 117.203 113.508C110.975 113.508 106.304 118.074 106.304 123.705Z" fill="#212121"/>
<path d="M230.842 267.214L196.124 279.525C195.328 279.807 194.495 279.95 193.656 279.95H80.9883C76.568 279.95 75.5963 273.393 79.8056 271.969L116.82 259.446C117.202 259.316 117.601 259.251 118.002 259.251L229.608 259.25C233.997 259.25 235.003 265.739 230.842 267.214Z" fill="#C9C9C9"/>
<path fill-rule="evenodd" clip-rule="evenodd" d="M233.287 263.539C233.958 265.504 232.876 267.631 230.869 268.288L196.457 279.563C195.673 279.82 194.853 279.951 194.026 279.951H181.717C179.601 279.951 177.886 278.27 177.886 276.198C177.886 274.125 179.601 272.445 181.717 272.445H194.026L228.438 261.17C230.445 260.513 232.616 261.573 233.287 263.539Z" fill="#A7A7A7"/>
<path d="M51.343 206.986L62.614 264.309C64.4006 273.395 72.4025 279.95 81.707 279.95H186.642C196.44 279.95 203.801 271.049 201.915 261.481L190.611 204.157C188.82 195.075 180.82 188.525 171.52 188.525H66.6174C56.8224 188.525 49.4623 197.421 51.343 206.986Z" fill="#DFDFDF"/>
<g clip-path="url(#clip0_1735_16686)">
<path fill-rule="evenodd" clip-rule="evenodd" d="M123.165 225.507C124.032 225.361 124.931 225.283 125.853 225.283C126.852 225.283 127.847 225.373 128.83 225.544C131.597 220.797 135.672 220.781 137.362 221.923C139.86 223.611 140.861 229.514 140.919 232.652C142.107 234.213 142.881 235.893 143.088 237.55C143.603 241.701 140.207 247.173 128.571 247.173C116.936 247.173 112.436 241.703 111.921 237.55C111.712 235.868 112.062 234.166 112.858 232.586C112.145 229.433 111.701 223.6 113.766 221.923C115.168 220.784 119.23 220.797 123.165 225.507Z" fill="#A7A7A7"/>
</g>
<path d="M18.8692 48.3356L14.1373 41.5028C12.4561 39.0752 13.2338 35.7271 15.8129 34.2891L19.9584 31.9777C22.7184 30.4388 26.196 31.8143 27.1567 34.8248L29.7346 42.9036C30.4678 45.2012 29.4563 47.6948 27.3297 48.8324L25.3381 49.8977C23.0981 51.096 20.3155 50.4241 18.8692 48.3356Z" fill="#5973FF"/>
<path d="M51.4027 118.083L45.5296 112.435C43.3852 110.373 43.5052 106.905 45.7871 104.996L49.3874 101.984C51.7971 99.9678 55.4472 100.648 56.9696 103.396L60.9868 110.648C62.1635 112.772 61.6438 115.435 59.7546 116.96L58.0102 118.369C56.0502 119.952 53.2186 119.83 51.4027 118.083Z" fill="#BAEFD5"/>
<path d="M257.36 233.367L263.544 228.061C265.802 226.124 269.242 226.574 270.924 229.028L273.579 232.9C275.355 235.491 274.33 239.06 271.448 240.313L263.846 243.618C261.619 244.587 259.018 243.815 257.68 241.788L256.444 239.917C255.056 237.815 255.448 235.008 257.36 233.367Z" fill="#5973FF"/>
<path d="M236.658 32.6694L234.856 24.7225C234.199 21.8209 236.205 18.9905 239.16 18.65L243.824 18.1127C246.945 17.7531 249.621 20.3273 249.382 23.46L248.751 31.7261C248.567 34.1475 246.669 36.0861 244.252 36.3222L242.02 36.5403C239.513 36.7853 237.215 35.1264 236.658 32.6694Z" fill="#FFC05B"/>
<path d="M11.5113 240.687L5.60264 235.075C3.44529 233.027 3.54341 229.559 5.81315 227.635L9.39443 224.6C11.7913 222.569 15.4456 223.226 16.9854 225.965L21.0482 233.191C22.2384 235.308 21.7355 237.973 19.8559 239.511L18.1205 240.931C16.1705 242.526 13.3382 242.422 11.5113 240.687Z" fill="#FFC05B"/>
<path d="M262.376 104.191L265.693 96.7484C266.904 94.0309 270.206 92.9658 272.777 94.4633L276.833 96.8261C279.548 98.4075 280.149 102.071 278.081 104.437L272.626 110.679C271.028 112.507 268.347 112.923 266.27 111.665L264.352 110.503C262.198 109.197 261.351 106.492 262.376 104.191Z" fill="#9BA9F1"/>
<path d="M157.307 3.68495L161.943 10.3855C163.636 12.832 162.831 16.2066 160.216 17.6255L156.09 19.8642C153.329 21.3626 149.886 19.9728 148.938 16.9772L146.439 9.07296C145.706 6.7576 146.744 4.25087 148.898 3.12986L150.887 2.09477C153.122 0.931752 155.873 1.61321 157.307 3.68495Z" fill="#F6A8A9"/>
<defs>
<clipPath id="clip0_1735_16686">
<rect width="31.275" height="25.875" fill="white" transform="translate(111.861 221.3)"/>
</clipPath>
</defs>
</svg>
