<svg width="48" height="48" viewBox="0 0 48 48" fill="none" xmlns="http://www.w3.org/2000/svg">
<rect width="48" height="48" rx="12" fill="#191919"/>
<path fill-rule="evenodd" clip-rule="evenodd" d="M21.0689 14.8906C21.9619 14.7385 22.8775 14.6578 23.8073 14.6578C24.8136 14.6578 25.8069 14.7523 26.7758 14.9296C30.1579 9.97586 34.2698 9.9597 35.8296 11.1507C38.1368 12.9125 38.407 19.072 38.0719 22.3466C39.0746 23.9758 39.6453 25.7276 39.6453 27.458C39.6453 31.7907 35.536 37.5 23.8073 37.5C12.0786 37.5 8.22607 31.7907 8.22607 27.458C8.22607 25.7034 8.79271 23.9267 9.79262 22.2782C9.46826 18.987 9.75058 12.9003 12.0418 11.1507C13.5975 9.96283 17.6919 9.97579 21.0689 14.8906Z" fill="#FFCE6C"/>
<path fill-rule="evenodd" clip-rule="evenodd" d="M35.1314 27.2483C33.2566 25.8929 30.9247 25.4093 28.4679 25.6182C28.0277 25.6556 27.6404 25.3291 27.603 24.8888C27.5656 24.4486 27.8921 24.0614 28.3324 24.0239C31.0756 23.7907 33.8139 24.3215 36.0688 25.9517C36.4269 26.2106 36.5073 26.7107 36.2485 27.0687C35.9896 27.4268 35.4895 27.5072 35.1314 27.2483Z" fill="#373738"/>
<path fill-rule="evenodd" clip-rule="evenodd" d="M13.2685 27.2483C15.1433 25.8929 17.4752 25.4093 19.932 25.6182C20.3722 25.6556 20.7595 25.3291 20.7969 24.8888C20.8343 24.4486 20.5078 24.0614 20.0675 24.0239C17.3243 23.7907 14.586 24.3215 12.3311 25.9517C11.973 26.2106 11.8926 26.7107 12.1514 27.0687C12.4103 27.4268 12.9104 27.5072 13.2685 27.2483Z" fill="#373738"/>
</svg>
