<svg width="48" height="48" viewBox="0 0 48 48" fill="none" xmlns="http://www.w3.org/2000/svg">
<rect width="48" height="48" rx="12" fill="#191919"/>
<path fill-rule="evenodd" clip-rule="evenodd" d="M21.0689 14.8906C21.9619 14.7385 22.8775 14.6578 23.8073 14.6578C24.8136 14.6578 25.8069 14.7523 26.7758 14.9296C30.1579 9.97586 34.2698 9.9597 35.8296 11.1507C38.1368 12.9125 38.407 19.072 38.0719 22.3466C39.0746 23.9758 39.6453 25.7276 39.6453 27.458C39.6453 31.7907 35.536 37.5 23.8073 37.5C12.0786 37.5 8.22607 31.7907 8.22607 27.458C8.22607 25.7034 8.79271 23.9267 9.79262 22.2782C9.46826 18.987 9.75058 12.9003 12.0418 11.1507C13.5975 9.96283 17.6919 9.97579 21.0689 14.8906Z" fill="#F15A5B"/>
<path d="M18.1416 23.8362C20.7597 25.2517 20.9687 26.8304 20.7228 27.5563C20.4463 28.9173 18.1802 31.4119 14.5925 29.9607C11.2277 28.5997 11.8003 25.0001 12.4003 24.0001C13.104 22.8273 14.869 22.0669 18.1416 23.8362Z" fill="white"/>
<path fill-rule="evenodd" clip-rule="evenodd" d="M16.6 29.1999C14.7222 29.1999 13.2 27.6777 13.2 25.7999C13.2 24.4966 13.9333 23.3646 15.0098 22.7939C15.839 22.8386 16.8689 23.1482 18.1413 23.8361C18.9544 24.2757 19.5352 24.731 19.9421 25.1717C19.9801 25.3753 20 25.5853 20 25.7999C20 27.6777 18.4778 29.1999 16.6 29.1999Z" fill="#373738"/>
<path d="M29.4585 23.8362C26.8404 25.2517 26.6314 26.8304 26.8773 27.5563C27.1538 28.9173 29.4198 31.4119 33.0076 29.9607C36.3724 28.5997 35.7998 25.0001 35.1998 24.0001C34.4961 22.8273 32.7311 22.0669 29.4585 23.8362Z" fill="white"/>
<path fill-rule="evenodd" clip-rule="evenodd" d="M31.0001 29.1999C32.8779 29.1999 34.4001 27.6777 34.4001 25.7999C34.4001 24.4966 33.6668 23.3646 32.5903 22.7939C31.7611 22.8386 30.7312 23.1482 29.4588 23.8361C28.6457 24.2757 28.0649 24.731 27.658 25.1717C27.62 25.3753 27.6001 25.5853 27.6001 25.7999C27.6001 27.6777 29.1223 29.1999 31.0001 29.1999Z" fill="#373738"/>
</svg>
