<svg width="1064" height="637" viewBox="0 0 1064 637" fill="none" xmlns="http://www.w3.org/2000/svg">
<path d="M925.645 397.161C876.106 343.61 782.407 394.682 741.75 426.911L494.054 478.975C379.964 508.725 317.665 585.581 300.776 620.29C283.263 601.696 242.23 536.988 218.211 426.911C188.187 289.315 161.917 280.019 131.893 280.019C101.87 280.019 41.8224 315.347 77.4756 506.866C105.998 660.081 173.176 772.761 203.2 809.949C195.694 839.699 130.016 966.139 525.954 941.967C842.705 922.629 839.327 713.26 798.044 610.993C882.486 560.789 987.569 464.099 925.645 397.161Z" fill="#373738"/>
<path fill-rule="evenodd" clip-rule="evenodd" d="M751.614 250.554C751.754 186.582 710.743 107.076 668.795 95.3542C638.491 86.8864 575.932 111.953 554.076 207.706C544.017 209.53 533.824 211.835 523.532 214.63C507.124 219.086 491.46 225.108 476.708 232.444C404.186 165.841 340.119 182.5 321.122 207.471C294.211 242.845 309.289 336.18 348.6 387.234C346.158 397.842 344.658 408.563 344.17 419.29L301.811 422.481C292.406 423.19 285.324 431.539 285.994 441.131C286.664 450.722 294.831 457.923 304.237 457.215L346.246 454.05C347.042 458.763 348.053 463.455 349.285 468.116C350.208 471.607 351.306 475.114 352.585 478.618L322.415 491.723C313.746 495.488 309.723 505.716 313.429 514.568C317.135 523.419 327.167 527.542 335.836 523.777L368.959 509.389C404.099 558.085 481.01 594.079 614.276 557.886C760.512 518.171 806.029 448.237 806.273 378.117L829.384 375.566C838.76 374.531 845.501 365.945 844.44 356.39C843.38 346.835 834.919 339.928 825.543 340.963L802.932 343.46C801.117 333.947 798.645 324.877 795.561 316.261L818.869 305.164C827.405 301.099 831.031 290.76 826.967 282.072C822.903 273.383 812.688 269.635 804.152 273.7L780.506 284.959C772.483 272.041 762.775 260.552 751.614 250.554Z" fill="#373738"/>
<path d="M540.404 409.581C540.404 443.063 506.022 470.206 472.214 470.206C438.407 470.206 410.808 451.025 410.808 409.581C410.808 376.099 442.445 347.878 475.191 347.878C517.212 347.878 540.404 372.533 540.404 409.581Z" fill="white"/>
<path d="M531.263 403.651C531.263 429.39 511.15 449.834 486.34 449.834C461.531 449.834 441.418 430.634 441.418 406.949C441.418 383.265 461.531 360.766 486.34 360.766C512.01 360.766 531.263 379.966 531.263 403.651Z" fill="#212121"/>
<path d="M750.794 347.137C750.794 379.9 726.112 400.773 692.563 404.165C659.014 407.558 626.121 383.343 626.121 347.137C626.121 314.454 656.54 284.078 688.582 284.078C730.373 284.078 750.794 314.374 750.794 347.137Z" fill="white"/>
<path d="M740.609 338.743C740.609 364.482 720.497 384.926 695.687 384.926C670.877 384.926 650.765 365.726 650.765 342.042C650.765 318.357 670.877 295.858 695.687 295.858C721.357 295.858 740.609 315.058 740.609 338.743Z" fill="#212121"/>
<path d="M982.3 319.07L880.559 297.297L852.339 384.926L959.25 409.398C972.823 412.505 986.518 404.433 990.566 390.939L1001.99 352.842C1006.48 337.878 997.401 322.302 982.3 319.07Z" fill="#FEAF30"/>
<g clip-path="url(#clip0_1735_15070)">
<rect width="135.796" height="132.994" rx="2" transform="matrix(0.863084 -0.505061 0.494956 0.868918 791.576 278.254)" fill="#FEAF30"/>
<path d="M852.339 384.926L791.576 278.254L880.559 297.297L852.339 384.926Z" fill="#FEAF30"/>
<path d="M969.543 316.34L908.78 209.668L880.559 297.297L969.543 316.34Z" fill="#FEAF30"/>
<path d="M908.78 209.668L791.576 278.254L880.559 297.297L908.78 209.668Z" fill="#FFE39A"/>
</g>
<path d="M848.148 397.94L880.559 297.297L969.06 316.207L936.366 422.749C932.234 436.215 918.494 444.199 904.942 441.008L867.161 432.114C852.128 428.575 843.358 412.813 848.148 397.94Z" fill="#FFE39A"/>
<defs>
<clipPath id="clip0_1735_15070">
<rect width="135.796" height="132.994" rx="2" transform="matrix(0.863084 -0.505061 0.494956 0.868918 791.576 278.254)" fill="white"/>
</clipPath>
</defs>
</svg>
