<svg width="321" height="320" viewBox="0 0 321 320" fill="none" xmlns="http://www.w3.org/2000/svg">
<path fill-rule="evenodd" clip-rule="evenodd" d="M136.885 87.1251C144.029 85.9081 151.354 85.2623 158.792 85.2623C166.843 85.2623 174.789 86.0188 182.54 87.4369C209.597 47.8069 242.493 47.6776 254.971 57.2055C273.428 71.2996 275.59 120.576 272.909 146.773C280.931 159.806 285.497 173.821 285.497 187.664C285.497 222.325 252.622 268 158.792 268C64.9626 268 34.1426 222.325 34.1426 187.664C34.1426 173.627 38.6756 159.414 46.6749 146.226C44.08 119.896 46.3386 71.2022 64.6688 57.2055C77.1138 47.7026 109.869 47.8063 136.885 87.1251Z" fill="#F15A5B"/>
<path d="M113.464 158.689C134.409 170.013 136.08 182.643 134.114 188.45C131.901 199.338 113.773 219.295 85.0709 207.685C58.1528 196.797 62.7334 168 67.5334 160C73.1629 150.617 87.2832 144.535 113.464 158.689Z" fill="white"/>
<path fill-rule="evenodd" clip-rule="evenodd" d="M101.133 201.6C86.1111 201.6 73.9332 189.422 73.9332 174.4C73.9332 163.974 79.7997 154.917 88.412 150.352C95.0453 150.709 103.285 153.186 113.464 158.689C119.969 162.206 124.615 165.849 127.87 169.374C128.174 171.003 128.333 172.683 128.333 174.4C128.333 189.422 116.155 201.6 101.133 201.6Z" fill="#373738"/>
<path d="M204.003 158.689C183.058 170.013 181.386 182.643 183.353 188.45C185.565 199.338 203.694 219.295 232.396 207.685C259.314 196.797 254.733 168 249.933 160C244.304 150.617 230.183 144.535 204.003 158.689Z" fill="white"/>
<path fill-rule="evenodd" clip-rule="evenodd" d="M216.333 201.6C231.355 201.6 243.533 189.422 243.533 174.4C243.533 163.974 237.667 154.917 229.054 150.352C222.421 150.709 214.182 153.186 204.003 158.689C197.498 162.206 192.852 165.849 189.596 169.374C189.292 171.003 189.133 172.683 189.133 174.4C189.133 189.422 201.311 201.6 216.333 201.6Z" fill="#373738"/>
</svg>
