<svg width="48" height="48" viewBox="0 0 48 48" fill="none" xmlns="http://www.w3.org/2000/svg">
<rect width="48" height="48" rx="12" fill="#191919"/>
<path fill-rule="evenodd" clip-rule="evenodd" d="M21.0689 14.8906C21.9619 14.7385 22.8775 14.6578 23.8073 14.6578C24.8136 14.6578 25.8069 14.7523 26.7758 14.9296C30.1579 9.97586 34.2698 9.9597 35.8296 11.1507C38.1368 12.9125 38.407 19.072 38.0719 22.3466C39.0746 23.9758 39.6453 25.7276 39.6453 27.458C39.6453 31.7907 35.536 37.5 23.8073 37.5C12.0786 37.5 8.22607 31.7907 8.22607 27.458C8.22607 25.7034 8.79271 23.9267 9.79262 22.2782C9.46826 18.987 9.75058 12.9003 12.0418 11.1507C13.5975 9.96283 17.6919 9.97579 21.0689 14.8906Z" fill="#98C0FC"/>
<path fill-rule="evenodd" clip-rule="evenodd" d="M27.241 24.1468C27.3807 23.7277 27.8338 23.5012 28.2529 23.6409L35.4529 26.0409C35.8721 26.1806 36.0986 26.6337 35.9589 27.0528C35.8192 27.472 35.3661 27.6985 34.9469 27.5588L27.7469 25.1588C27.3278 25.0191 27.1013 24.566 27.241 24.1468Z" fill="#373738"/>
<path fill-rule="evenodd" clip-rule="evenodd" d="M20.759 24.1468C20.6193 23.7277 20.1662 23.5012 19.7471 23.6409L12.5471 26.0409C12.1279 26.1806 11.9014 26.6337 12.0411 27.0528C12.1808 27.472 12.6339 27.6985 13.0531 27.5588L20.2531 25.1588C20.6722 25.0191 20.8987 24.566 20.759 24.1468Z" fill="#373738"/>
<g clip-path="url(#clip0_1735_15260)">
<path d="M31.5988 33.9999C32.6208 33.9829 33.5974 33.1547 33.5974 31.9872C33.5974 30.455 32.6555 29.2253 32.0657 28.6034C31.8069 28.3321 31.3906 28.3321 31.1318 28.6034C30.5421 29.2253 29.6001 30.4579 29.6001 31.99C29.6001 32.8013 30.1204 33.5391 30.8196 33.8444C31.0731 33.9547 31.3373 34.0056 31.6014 33.9999H31.5988Z" fill="#C9DEFF"/>
</g>
<defs>
<clipPath id="clip0_1735_15260">
<rect width="4" height="5.6" fill="white" transform="translate(29.6001 28.3999)"/>
</clipPath>
</defs>
</svg>
