<svg width="33" height="32" viewBox="0 0 33 32" fill="none" xmlns="http://www.w3.org/2000/svg">
<path d="M25.2744 16.2123C25.2895 15.0437 25.6007 13.898 26.1792 12.8817C26.7577 11.8653 27.5845 11.0114 28.5828 10.3994C27.9486 9.49615 27.112 8.75283 26.1393 8.22846C25.1666 7.70409 24.0847 7.4131 22.9795 7.37862C20.622 7.13186 18.3365 8.78538 17.1351 8.78538C15.9105 8.78538 14.0608 7.40312 12.069 7.44399C10.7807 7.4855 9.52508 7.85909 8.42457 8.52837C7.32406 9.19765 6.41617 10.1398 5.78936 11.263C3.07416 15.9508 5.09945 22.8403 7.70039 26.6295C9.00169 28.485 10.5225 30.5576 12.5125 30.4841C14.4599 30.4036 15.1872 29.2459 17.5378 29.2459C19.8666 29.2459 20.5489 30.4841 22.5793 30.4374C24.6689 30.4036 25.9854 28.5737 27.241 26.7006C28.176 25.3785 28.8955 23.9173 29.3728 22.3711C28.1588 21.8591 27.1228 21.002 26.394 19.9068C25.6652 18.8116 25.2758 17.5267 25.2744 16.2123Z" fill="black"/>
<path d="M21.4393 4.88687C22.5786 3.52298 23.1399 1.76993 23.004 0C21.2634 0.182309 19.6555 1.01189 18.5008 2.32345C17.9362 2.96419 17.5038 3.7096 17.2283 4.51707C16.9528 5.32455 16.8395 6.17826 16.8951 7.0294C17.7657 7.03834 18.627 6.85016 19.4142 6.47904C20.2013 6.10792 20.8937 5.56353 21.4393 4.88687Z" fill="black"/>
</svg>
