<svg width="321" height="320" viewBox="0 0 321 320" fill="none" xmlns="http://www.w3.org/2000/svg">
<path fill-rule="evenodd" clip-rule="evenodd" d="M137.219 87.1251C144.363 85.9081 151.687 85.2623 159.126 85.2623C167.176 85.2623 175.123 86.0188 182.874 87.4369C209.931 47.8069 242.826 47.6776 255.304 57.2055C273.762 71.2996 275.923 120.576 273.243 146.773C281.264 159.806 285.83 173.821 285.83 187.664C285.83 222.325 252.956 268 159.126 268C65.2961 268 34.4761 222.325 34.4761 187.664C34.4761 173.627 39.0091 159.414 47.0084 146.226C44.4135 119.896 46.6721 71.2022 65.0023 57.2055C77.4473 47.7026 110.203 47.8063 137.219 87.1251Z" fill="#98C0FC"/>
<path fill-rule="evenodd" clip-rule="evenodd" d="M186.595 161.176C187.713 157.823 191.337 156.011 194.691 157.128L252.291 176.328C255.644 177.446 257.456 181.071 256.338 184.424C255.221 187.777 251.596 189.589 248.243 188.472L190.643 169.272C187.29 168.154 185.478 164.529 186.595 161.176Z" fill="#373738"/>
<path fill-rule="evenodd" clip-rule="evenodd" d="M134.738 161.176C133.62 157.823 129.996 156.011 126.643 157.128L69.0428 176.328C65.6895 177.446 63.8773 181.071 64.995 184.424C66.1128 187.777 69.7372 189.589 73.0905 188.472L130.69 169.272C134.044 168.154 135.856 164.529 134.738 161.176Z" fill="#373738"/>
<g clip-path="url(#clip0_1735_14008)">
<path d="M221.456 240C229.632 239.864 237.445 233.238 237.445 223.898C237.445 211.641 229.91 201.803 225.192 196.828C223.121 194.657 219.791 194.657 217.72 196.828C213.002 201.803 205.467 211.664 205.467 223.921C205.467 230.411 209.63 236.314 215.223 238.756C217.251 239.638 219.364 240.045 221.477 240H221.456Z" fill="#C9DEFF"/>
</g>
<defs>
<clipPath id="clip0_1735_14008">
<rect width="32" height="44.8" fill="white" transform="translate(205.467 195.2)"/>
</clipPath>
</defs>
</svg>
