<svg width="36" height="36" viewBox="0 0 36 36" fill="none" xmlns="http://www.w3.org/2000/svg">
<path fill-rule="evenodd" clip-rule="evenodd" d="M15.362 9.80172C16.1657 9.66478 16.9898 9.5921 17.8268 9.5921C18.7327 9.5921 19.627 9.67726 20.4992 9.8369C23.5431 5.37838 27.2439 5.36381 28.6477 6.43571C30.7245 8.02152 30.9674 13.5664 30.6657 16.5132C31.0032 17.0617 31.2863 17.6257 31.5084 18.1983L33.0167 17.7565C33.507 17.6129 34.0201 17.8967 34.1628 18.3903C34.3054 18.884 34.0236 19.4006 33.5332 19.5442L31.9948 19.9948C32.0517 20.3673 32.081 20.7404 32.081 21.1123C32.081 21.3313 32.0694 21.5541 32.0455 21.7797L33.5228 22.1946C34.0147 22.3327 34.3022 22.8462 34.165 23.3414C34.0278 23.8366 33.5179 24.1261 33.026 23.988L31.5974 23.5868C30.2969 26.8861 26.2398 30.1501 17.8268 30.1501C9.44381 30.1501 5.53148 26.9094 4.27601 23.6222L2.97352 23.988C2.48165 24.1261 1.9717 23.8366 1.83451 23.3414C1.69732 22.8462 1.98485 22.3327 2.47672 22.1946L3.84037 21.8116C3.81566 21.5751 3.80368 21.3416 3.80368 21.1123C3.80368 20.7293 3.83367 20.3452 3.89195 19.9618L2.46638 19.5442C1.97606 19.4006 1.69421 18.884 1.83685 18.3903C1.97949 17.8967 2.4926 17.6129 2.98291 17.7565L4.37124 18.1631C4.59276 17.5809 4.87557 17.0078 5.21332 16.4509C4.92133 13.4889 5.17535 8.01041 7.23758 6.43571C8.63765 5.36664 12.3227 5.37831 15.362 9.80172Z" fill="#373738"/>
<path d="M15.1464 20.3757C15.1464 22.4269 13.5501 23.6804 11.1751 23.6804C8.8001 23.6804 7.50928 22.6539 7.50928 20.7167C7.50928 19.1214 8.52008 17.2896 11.0972 17.0711C13.312 16.8834 15.1464 18.5507 15.1464 20.3757Z" fill="#FEFEFE"/>
<path d="M20.7779 20.3757C20.7779 22.4269 22.3742 23.6804 24.7492 23.6804C27.1242 23.6804 28.415 22.6539 28.415 20.7167C28.415 19.1214 27.4042 17.2896 24.8271 17.0711C22.6123 16.8834 20.7779 18.5507 20.7779 20.3757Z" fill="#FEFEFE"/>
<path d="M14.1417 20.4457C14.1417 21.8494 12.984 22.9874 11.5558 22.9874C9.83185 22.9874 8.896 21.9253 8.896 20.5216C8.896 19.1179 9.85648 17.75 11.5558 17.75C13.329 17.75 14.1417 19.042 14.1417 20.4457Z" fill="#373738"/>
<path d="M21.7807 20.4457C21.7807 21.8494 22.9384 22.9874 24.3666 22.9874C26.0905 22.9874 27.0264 21.9253 27.0264 20.5216C27.0264 19.1179 26.0659 17.75 24.3666 17.75C22.5934 17.75 21.7807 19.042 21.7807 20.4457Z" fill="#373738"/>
</svg>
