<svg width="160" height="56" viewBox="0 0 160 56" fill="none" xmlns="http://www.w3.org/2000/svg">
<path fill-rule="evenodd" clip-rule="evenodd" d="M23.8965 15.247C25.1467 15.034 26.4284 14.921 27.7302 14.921C29.1391 14.921 30.5297 15.0534 31.8861 15.3016C36.6211 8.36631 42.3778 8.34367 44.5614 10.0111C47.7915 12.4775 48.1698 21.1009 47.7007 25.6853C48.2262 26.5392 48.667 27.4171 49.0128 28.3085L51.3595 27.6212C52.1222 27.3978 52.9204 27.8392 53.1422 28.6071C53.3641 29.3751 52.9257 30.1787 52.163 30.4021L49.7694 31.1032C49.8579 31.6824 49.9035 32.2628 49.9035 32.8414C49.9035 33.1818 49.8854 33.5282 49.8483 33.879L52.1476 34.5247C52.9128 34.7396 53.36 35.5383 53.1466 36.3087C52.9332 37.079 52.14 37.5293 51.3748 37.3145L49.1514 36.6901C47.1286 41.8225 40.8176 46.9001 27.7302 46.9001C14.6899 46.9001 8.60406 41.8589 6.65119 36.7454L4.62484 37.3145C3.85971 37.5293 3.06645 37.079 2.85305 36.3087C2.63964 35.5383 3.08691 34.7396 3.85204 34.5247L5.97356 33.929C5.93515 33.5611 5.91651 33.1979 5.91651 32.8414C5.91651 32.2455 5.96318 31.6479 6.05385 31.0515L3.83675 30.4021C3.07403 30.1787 2.6356 29.3751 2.85748 28.6071C3.07936 27.8392 3.87753 27.3978 4.64025 27.6212L6.79943 28.2536C7.1441 27.3477 7.58415 26.456 8.10967 25.5896C7.65557 20.982 8.05082 12.4605 11.2586 10.0111C13.4365 8.34806 19.1687 8.3662 23.8965 15.247Z" fill="#373738"/>
<path d="M23.5599 31.6958C23.5599 34.8864 21.0768 36.8363 17.3823 36.8363C13.6879 36.8363 11.6799 35.2396 11.6799 32.2262C11.6799 29.7446 13.2523 26.8951 17.2612 26.5552C20.7064 26.2632 23.5599 28.8567 23.5599 31.6958Z" fill="#FEFEFE"/>
<path d="M32.3199 31.6958C32.3199 34.8864 34.8031 36.8363 38.4975 36.8363C42.192 36.8363 44.2 35.2396 44.2 32.2262C44.2 29.7446 42.6276 26.8951 38.6187 26.5552C35.1735 26.2632 32.3199 28.8567 32.3199 31.6958Z" fill="#FEFEFE"/>
<path d="M21.9998 31.8042C21.9998 33.9877 20.1989 35.7578 17.9773 35.7578C15.2956 35.7578 13.8398 34.1058 13.8398 31.9222C13.8398 29.7387 15.3339 27.6108 17.9773 27.6108C20.7356 27.6108 21.9998 29.6206 21.9998 31.8042Z" fill="#373738"/>
<path d="M33.8798 31.8042C33.8798 33.9877 35.6807 35.7578 37.9023 35.7578C40.584 35.7578 42.0398 34.1058 42.0398 31.9222C42.0398 29.7387 40.5457 27.6108 37.9023 27.6108C35.144 27.6108 33.8798 29.6206 33.8798 31.8042Z" fill="#373738"/>
<g clip-path="url(#clip0_1735_14986)">
<path d="M75.3086 16.169V13.831C75.3086 13.2113 75.5361 12.7324 75.9627 12.4507C76.4177 12.169 76.9011 12 77.4699 12C78.0387 12 78.5505 12.1408 78.9771 12.4507C79.4321 12.7324 79.6312 13.2113 79.6312 13.831V16.169H84.9776C85.4894 16.169 85.8876 16.338 86.1435 16.7042C86.3995 17.0704 86.5132 17.493 86.5132 18C86.5132 18.507 86.3995 18.9296 86.1435 19.2958C85.8876 19.662 85.5179 19.831 84.9776 19.831H69.5357C69.0238 19.831 68.6256 19.662 68.3697 19.2958C68.1138 18.9296 68 18.507 68 18C68 17.493 68.1138 17.0704 68.3697 16.7042C68.6256 16.338 68.9953 16.169 69.5357 16.169H75.3086ZM77.4983 21.5211C78.6643 21.5211 79.7165 21.6901 80.655 22C81.5934 22.3099 82.3897 22.7887 83.0438 23.3803C83.6978 23.9718 84.1813 24.6761 84.551 25.5211C84.8922 26.3662 85.0913 27.2958 85.0913 28.3099C85.0913 29.3239 84.9207 30.2535 84.551 31.0986C84.2097 31.9437 83.6978 32.6479 83.0438 33.2394C82.3897 33.831 81.5934 34.2817 80.655 34.6197C79.7165 34.9577 78.6643 35.0986 77.4983 35.0986C76.3324 35.0986 75.2802 34.9296 74.3417 34.6197C73.4032 34.2817 72.607 33.831 71.9529 33.2394C71.2988 32.6479 70.8154 31.9437 70.4457 31.0986C70.1044 30.2535 69.9054 29.3239 69.9054 28.3099C69.9054 27.2958 70.076 26.3662 70.4457 25.5211C70.8154 24.6761 71.2988 23.9718 71.9529 23.3803C72.607 22.7887 73.4032 22.338 74.3417 22C75.2802 21.662 76.3324 21.5211 77.4983 21.5211ZM77.4983 31.662C78.579 31.662 79.4606 31.3521 80.1146 30.7606C80.7687 30.169 81.11 29.3521 81.11 28.3099C81.11 27.2676 80.7687 26.4507 80.1146 25.8592C79.4606 25.2676 78.579 24.9577 77.4983 24.9577C76.4177 24.9577 75.5361 25.2676 74.882 25.8592C74.228 26.4507 73.8867 27.2676 73.8867 28.3099C73.8867 29.3521 74.228 30.169 74.882 30.7606C75.5361 31.3521 76.4177 31.662 77.4983 31.662ZM92.8549 22.3944H96.0684C96.6088 22.3944 97.0069 22.5634 97.2628 22.9296C97.5188 23.2958 97.6325 23.7183 97.6325 24.2535C97.6325 24.7887 97.5188 25.2113 97.2628 25.5775C97.0069 25.9437 96.6088 26.1408 96.0684 26.1408H92.8549V39.8028C92.8549 40.4225 92.6274 40.9014 92.2008 41.1831C91.7458 41.4648 91.2624 41.6338 90.7221 41.6338C90.1817 41.6338 89.6414 41.493 89.2148 41.1831C88.7598 40.9014 88.5608 40.4225 88.5608 39.8028V13.8873C88.5608 13.2676 88.7883 12.7887 89.2148 12.507C89.6699 12.2254 90.1533 12.0563 90.7221 12.0563C91.2908 12.0563 91.7743 12.1972 92.2008 12.507C92.6559 12.7887 92.8549 13.2676 92.8549 13.8873V22.3662V22.3944Z" fill="#212121"/>
<path d="M115.833 34.0281V42.1408C115.833 42.7605 115.605 43.2394 115.179 43.5211C114.724 43.8028 114.24 43.9718 113.672 43.9718C113.103 43.9718 112.591 43.831 112.164 43.5211C111.709 43.2394 111.51 42.7605 111.51 42.1408V34.0281H100.789C100.277 34.0281 99.8791 33.8591 99.6231 33.4929C99.3672 33.1267 99.2534 32.7042 99.2534 32.1972C99.2534 31.6901 99.3672 31.2957 99.6231 30.9577C99.8791 30.5915 100.249 30.4225 100.789 30.4225H126.582C127.094 30.4225 127.492 30.5915 127.748 30.9577C128.004 31.3239 128.118 31.7465 128.118 32.1972C128.118 32.6479 128.004 33.1267 127.748 33.4929C127.492 33.8591 127.123 34.0281 126.582 34.0281H115.861H115.833ZM105.936 28.1408C104.856 28.1408 104.088 27.9436 103.661 27.5211C103.235 27.1267 103.036 26.3943 103.036 25.3239V21.8028C103.036 20.7324 103.235 20 103.661 19.6056C104.088 19.2112 104.827 18.9859 105.936 18.9859H119.103C119.615 18.9859 119.899 18.7324 119.899 18.1972V17.5493C119.899 17.0422 119.644 16.7605 119.103 16.7605H104.486C103.974 16.7605 103.576 16.5915 103.32 16.2253C103.064 15.8591 102.95 15.4648 102.95 15.0141C102.95 14.5634 103.064 14.169 103.32 13.8028C103.576 13.4366 103.946 13.2676 104.486 13.2676H121.265C122.345 13.2676 123.113 13.4648 123.54 13.8873C123.966 14.2817 124.165 15.0141 124.165 16.0845V19.5774C124.165 20.6479 123.966 21.3803 123.54 21.7746C123.113 22.169 122.374 22.3943 121.265 22.3943H108.098C107.586 22.3943 107.301 22.6479 107.301 23.1831V23.8591C107.301 24.3662 107.557 24.6479 108.098 24.6479H123.312C123.824 24.6479 124.222 24.8169 124.478 25.1831C124.734 25.5493 124.848 25.9436 124.848 26.3943C124.848 26.845 124.734 27.2394 124.478 27.6056C124.222 27.9718 123.852 28.1408 123.312 28.1408H105.908H105.936Z" fill="#212121"/>
<path d="M134.346 28.0561C133.266 28.0561 132.498 27.859 132.071 27.4364C131.645 27.0421 131.446 26.3097 131.446 25.2392V15.2674C131.446 14.6477 131.673 14.1688 132.1 13.8871C132.555 13.6054 133.038 13.4364 133.607 13.4364C134.176 13.4364 134.716 13.5773 135.171 13.8871C135.626 14.1688 135.825 14.6477 135.825 15.2674V23.5773C135.825 24.0843 136.081 24.366 136.621 24.366C138.498 24.366 140.318 24.3097 142.081 24.2252C143.845 24.1125 145.551 23.9716 147.2 23.7463C147.712 23.69 148.139 23.8026 148.452 24.1125C148.764 24.4223 148.935 24.8449 148.992 25.3238C149.049 25.8308 148.992 26.3097 148.793 26.704C148.622 27.0984 148.281 27.3238 147.769 27.4083C147.058 27.4928 146.29 27.5773 145.437 27.6618C144.584 27.7463 143.617 27.8026 142.536 27.8871C141.456 27.9716 140.233 27.9998 138.896 28.028C137.531 28.0562 136.024 28.0843 134.375 28.0843L134.346 28.0561ZM134.915 37.4646C134.915 35.2674 135.797 33.6336 137.588 32.535C139.38 31.4364 141.825 30.9012 144.982 30.9012C148.139 30.9012 150.584 31.4364 152.376 32.535C154.168 33.6336 155.049 35.2674 155.049 37.4646C155.049 39.6618 154.168 41.3238 152.376 42.3942C150.584 43.4646 148.139 44.028 144.982 44.028C141.825 44.028 139.38 43.4928 137.588 42.3942C135.797 41.2956 134.915 39.6618 134.915 37.4646ZM150.727 37.4646C150.727 36.535 150.3 35.8026 149.418 35.2111C148.537 34.6195 147.058 34.3378 145.011 34.3378C143.958 34.3378 143.077 34.4223 142.337 34.5632C141.598 34.704 141.029 34.9294 140.574 35.1829C140.119 35.4646 139.778 35.7745 139.579 36.1688C139.38 36.5632 139.266 36.9857 139.266 37.4646C139.266 37.9435 139.38 38.366 139.579 38.7604C139.778 39.1547 140.119 39.4646 140.574 39.7463C141.029 40.028 141.626 40.2252 142.337 40.366C143.077 40.5069 143.958 40.5914 145.011 40.5914C147.087 40.5914 148.565 40.3097 149.418 39.7181C150.272 39.1266 150.727 38.3942 150.727 37.4646ZM154.964 16.4505H157.893C158.405 16.4505 158.803 16.6195 159.059 16.9857C159.315 17.3519 159.429 17.7745 159.429 18.3097C159.429 18.8449 159.315 19.2393 159.059 19.6054C158.803 19.9716 158.433 20.1407 157.893 20.1407H154.964V22.197H157.893C158.405 22.197 158.803 22.366 159.059 22.7322C159.315 23.0984 159.429 23.5209 159.429 24.0562C159.429 24.5914 159.315 24.9857 159.059 25.3519C158.803 25.7181 158.433 25.8871 157.893 25.8871H154.964V28.9012C154.964 29.5209 154.736 29.9998 154.31 30.2815C153.855 30.5632 153.371 30.7322 152.803 30.7322C152.234 30.7322 151.722 30.5914 151.295 30.2815C150.84 29.9998 150.641 29.5209 150.641 28.9012V13.8871C150.641 13.2674 150.869 12.7885 151.295 12.5069C151.75 12.2252 152.234 12.0562 152.803 12.0562C153.371 12.0562 153.883 12.197 154.31 12.5069C154.765 12.7885 154.964 13.2674 154.964 13.8871V16.4223V16.4505Z" fill="#212121"/>
</g>
<defs>
<clipPath id="clip0_1735_14986">
<rect width="91.4286" height="32" fill="white" transform="translate(68 12)"/>
</clipPath>
</defs>
</svg>
