<svg width="33" height="32" viewBox="0 0 33 32" fill="none" xmlns="http://www.w3.org/2000/svg">
<path d="M5.88474 0.487503C5.497 0.953333 5.29916 1.55214 5.33172 2.16135V28.6081C5.29168 29.2183 5.49044 29.8199 5.88474 30.2819L5.9671 30.3776L20.5455 15.564V15.2054L5.9671 0.403809L5.88474 0.487503Z" fill="url(#paint0_linear_1735_15084)"/>
<path d="M25.3696 20.5019L20.5454 15.5641V15.2054L25.3696 10.2676L25.4755 10.3393L31.2527 13.6631C32.9 14.6076 32.9 16.1619 31.2527 17.1184L25.499 20.4422L25.3696 20.5019Z" fill="url(#paint1_linear_1735_15084)"/>
<path d="M25.5113 20.4302L20.546 15.3848L5.88525 30.282C6.21774 30.5827 6.64331 30.7557 7.08818 30.771C7.53305 30.7863 7.96915 30.6429 8.32087 30.3657L25.5113 20.4302Z" fill="url(#paint2_linear_1735_15084)"/>
<path d="M25.5113 10.3391L8.32087 0.415644C7.97144 0.134575 7.53567 -0.0123118 7.0902 0.000808691C6.64473 0.0139292 6.21807 0.186219 5.88525 0.487382L20.546 15.3846L25.5113 10.3391Z" fill="url(#paint3_linear_1735_15084)"/>
<path opacity="0.2" d="M25.3702 20.3223L8.32087 30.186C7.98193 30.4459 7.56887 30.5865 7.14424 30.5865C6.71961 30.5865 6.30655 30.4459 5.96762 30.186L5.88525 30.2697L5.96762 30.3653C6.30655 30.6252 6.71961 30.7659 7.14424 30.7659C7.56887 30.7659 7.98193 30.6252 8.32087 30.3653L25.5113 20.4299L25.3702 20.3223Z" fill="black"/>
<path opacity="0.12" d="M5.88482 30.1145C5.50688 29.6403 5.32166 29.0372 5.3671 28.4287V28.6081C5.32707 29.2183 5.52582 29.8198 5.92011 30.2819L6.00248 30.1982L5.88482 30.1145Z" fill="black"/>
<path opacity="0.12" d="M31.2528 16.939L25.3696 20.3226L25.4755 20.4302L31.2528 17.1064C31.5938 16.9599 31.8896 16.7227 32.1091 16.4197C32.3286 16.1167 32.4636 15.7592 32.5 15.3848C32.4264 15.725 32.2752 16.0429 32.0586 16.3129C31.8419 16.5829 31.5659 16.7973 31.2528 16.939Z" fill="black"/>
<path opacity="0.25" d="M8.32017 0.583073L31.2526 13.8303C31.5657 13.9721 31.8418 14.1865 32.0584 14.4565C32.275 14.7265 32.4262 15.0444 32.4998 15.3846C32.4634 15.0102 32.3284 14.6527 32.1089 14.3497C31.8894 14.0467 31.5936 13.8095 31.2526 13.663L8.32017 0.415688C6.68466 -0.540794 5.33154 0.248305 5.33154 2.16127V2.34061C5.36684 0.427644 6.68466 -0.361452 8.32017 0.583073Z" fill="white"/>
<defs>
<linearGradient id="paint0_linear_1735_15084" x1="19.2512" y1="1.88636" x2="-0.808452" y2="21.6276" gradientUnits="userSpaceOnUse">
<stop stop-color="#00A0FF"/>
<stop offset="0.01" stop-color="#00A1FF"/>
<stop offset="0.26" stop-color="#00BEFF"/>
<stop offset="0.51" stop-color="#00D2FF"/>
<stop offset="0.76" stop-color="#00DFFF"/>
<stop offset="1" stop-color="#00E3FF"/>
</linearGradient>
<linearGradient id="paint1_linear_1735_15084" x1="33.4059" y1="15.3848" x2="4.94337" y2="15.3848" gradientUnits="userSpaceOnUse">
<stop stop-color="#FFE000"/>
<stop offset="0.41" stop-color="#FFBD00"/>
<stop offset="0.78" stop-color="#FFA500"/>
<stop offset="1" stop-color="#FF9C00"/>
</linearGradient>
<linearGradient id="paint2_linear_1735_15084" x1="22.8169" y1="18.1347" x2="-4.39136" y2="44.8992" gradientUnits="userSpaceOnUse">
<stop stop-color="#FF3A44"/>
<stop offset="1" stop-color="#C31162"/>
</linearGradient>
<linearGradient id="paint3_linear_1735_15084" x1="2.19065" y1="-8.31225" x2="14.3364" y2="3.64072" gradientUnits="userSpaceOnUse">
<stop stop-color="#32A071"/>
<stop offset="0.07" stop-color="#2DA771"/>
<stop offset="0.48" stop-color="#15CF74"/>
<stop offset="0.8" stop-color="#06E775"/>
<stop offset="1" stop-color="#00F076"/>
</linearGradient>
</defs>
</svg>
